<svg xmlns="http://www.w3.org/2000/svg" width="171" height="22" viewBox="0 0 171 22" fill="none">
  <path d="M2.06689 14.7899L0 2.18526C0.543359 1.86856 1.10803 1.77355 1.65138 1.66799C3.00446 1.40407 4.36818 1.21405 5.74256 1.09793C7.99057 0.918465 10.2492 0.865682 12.4973 0.929022C15.0436 0.992362 17.5899 1.20349 20.083 1.763C20.3919 1.83689 20.7009 1.9319 20.9992 2.01635C21.0312 2.02691 21.0525 2.05858 21.0845 2.09025C21.0845 2.30138 20.9033 2.38584 20.7861 2.4914C19.8273 3.30426 18.8684 4.10657 17.9095 4.90887C16.6417 5.97509 15.3632 7.04131 14.0847 8.09697C12.7849 9.1843 11.4851 10.2822 10.1534 11.3906C8.72571 11.0106 7.31936 10.5039 5.89172 10.0605L5.83844 10.1555L10.6328 14.1881L20.5411 5.88008C20.4239 7.37912 20.1575 8.81482 19.9125 10.2716C19.6675 11.739 19.4437 13.2169 19.1987 14.7582L10.6328 21.9789L2.06689 14.7899Z" fill="#DE3737"/>
  <path d="M50.3409 0H52.3332V5.80614C52.4717 5.86948 52.5143 5.8167 52.557 5.76392C53.2175 4.82438 54.1444 4.31766 55.2631 4.14875C56.1367 4.00096 57.0423 4.04319 57.9053 4.26488C59.5035 4.6977 60.3984 5.78503 60.7926 7.33685C60.9418 7.91747 61.027 8.50864 61.027 9.11036C61.027 9.84933 61.059 10.5883 61.0057 11.3273C60.9205 12.6574 60.441 13.8292 59.4395 14.7476C58.747 15.3916 57.916 15.7505 56.9891 15.9405C55.8384 16.1939 54.6452 16.12 53.5265 15.7294C51.7792 15.1171 50.7884 13.8503 50.3942 12.0979C50.3089 11.6862 50.2663 11.2639 50.277 10.8417C50.277 7.37908 50.277 3.90595 50.277 0.443378C50.277 0.295585 50.2344 0.147793 50.3409 0ZM52.3545 10.1344C52.3652 10.4933 52.3332 11 52.3971 11.5067C52.4824 12.1823 52.6848 12.8052 53.1429 13.333C53.8035 14.0931 54.6771 14.3676 55.6573 14.3676C57.5005 14.357 58.6831 13.3013 58.8962 11.4856C58.9707 10.7466 58.9921 10.0077 58.9494 9.26871C58.9281 8.67754 58.8749 8.07582 58.6618 7.50576C58.3635 6.71401 57.8414 6.16507 56.9997 5.93282C56.2753 5.7428 55.5188 5.70058 54.7837 5.82726C53.4945 6.02783 52.7594 6.72457 52.493 7.98081C52.3439 8.65643 52.3545 9.3215 52.3545 10.1344Z" fill="white"/>
  <path d="M74.1849 10.3244H65.2993C65.2248 11.4222 65.2887 12.4568 65.896 13.3858C66.1623 13.808 66.5459 14.1353 67.0146 14.3359C68.1653 14.8215 69.3266 14.832 70.4559 14.2725C71.1271 13.9453 71.5533 13.3963 71.809 12.7101C71.8942 12.4673 71.9581 12.2034 72.0434 11.929H74.025C74.0037 12.5307 73.78 13.0585 73.503 13.5652C72.9596 14.5681 72.0434 15.3282 70.9567 15.6977C69.5823 16.2044 68.0694 16.2255 66.6737 15.7821C64.7347 15.1698 63.5947 13.8186 63.2857 11.8339C63.0939 10.5672 63.1152 9.26869 63.339 8.00189C63.6906 5.97502 64.8945 4.75045 66.9081 4.28596C68.1759 3.97982 69.497 4.00093 70.7542 4.3493C72.7465 4.89824 73.8333 6.26005 74.1316 8.25525C74.2062 8.93088 74.2381 9.62761 74.1849 10.3244ZM72.0647 9.13145C72.1712 8.6564 72.0647 8.22358 71.9795 7.80132C71.7451 6.67176 71.1165 5.88001 69.9445 5.6161C69.007 5.38385 68.0268 5.41552 67.1105 5.71111C66.695 5.83778 66.3328 6.08059 66.0558 6.40784C65.3952 7.19959 65.2887 8.13913 65.278 9.13145H72.0647Z" fill="white"/>
  <path d="M100.724 4.41263C100.809 4.34929 100.915 4.31762 101.011 4.32817H102.663C102.748 4.39151 102.801 4.49708 102.78 4.60264C102.78 6.76675 102.801 8.93086 102.769 11.095C102.748 12.4568 102.29 13.6708 101.299 14.6525C100.543 15.4021 99.6049 15.8032 98.5821 15.9827C97.4422 16.1938 96.2702 16.0988 95.1835 15.6871C93.4362 15.022 92.4773 13.7236 92.1257 11.9395C92.0405 11.4328 92.0085 10.9261 92.0192 10.4193C92.0192 8.57193 92.0192 6.72452 92.0192 4.87712C92.0192 4.70821 91.9766 4.52875 92.0725 4.33873H94.0754C94.1607 4.5393 94.1181 4.73988 94.1181 4.9299C94.1181 6.93566 94.1287 8.94141 94.1181 10.9472C94.1181 11.5278 94.2353 12.0978 94.459 12.6362C94.7467 13.333 95.3113 13.8714 96.0252 14.1247C96.8775 14.452 97.8151 14.4625 98.678 14.1669C99.9459 13.7341 100.489 12.7207 100.638 11.4644C100.66 11.2216 100.67 10.9683 100.66 10.7255C100.66 8.79362 100.66 6.8512 100.66 4.91934C100.681 4.76099 100.638 4.58153 100.724 4.41263Z" fill="white"/>
  <path d="M34.8179 12.1401H36.5971C36.5864 12.6996 36.3947 13.1852 36.1603 13.6497C35.553 14.8637 34.5409 15.5816 33.2304 15.8983C31.9839 16.215 30.6734 16.1622 29.4589 15.7505C27.8075 15.191 26.774 14.0403 26.4225 12.3724C26.0922 10.7994 26.1135 9.1737 26.4651 7.61132C26.8912 5.67946 28.191 4.60268 30.0981 4.22264C31.3233 3.96929 32.5912 4.03262 33.7738 4.40211C35.3399 4.88771 36.5438 6.41842 36.5651 8.02303C36.2775 8.11804 35.9792 8.0547 35.6809 8.06525C35.3825 8.07581 35.1162 8.06525 34.8392 8.06525C34.6687 7.86468 34.6474 7.62188 34.5728 7.41074C34.2639 6.58733 33.6992 6.0595 32.8256 5.89059C31.9732 5.70057 31.0889 5.72168 30.2473 5.94337C29.4056 6.17562 28.8835 6.72456 28.5959 7.51631C28.4467 7.94913 28.3615 8.40307 28.3508 8.857C28.2869 9.89155 28.223 10.9367 28.4361 11.9606C28.777 13.5758 29.7572 14.2831 31.334 14.4098C31.8667 14.452 32.3994 14.3887 32.9108 14.2409C33.6246 14.0509 34.2106 13.5547 34.5196 12.8791C34.6261 12.6468 34.7113 12.404 34.8179 12.1401Z" fill="white"/>
  <path d="M37.7363 4.47607H39.8352L43.074 13.9981C44.246 10.7784 45.3221 7.6325 46.4514 4.49719H48.497L42.8503 19.6987H41.1883L42.4881 15.8878C42.3389 15.6872 42.1258 15.8244 41.9021 15.6767L37.7363 4.47607Z" fill="white"/>
  <path d="M129.959 19.6986H128.318C128.712 18.3896 129.234 17.1545 129.564 15.8877C129.394 15.7188 129.202 15.8349 129.01 15.6343L124.845 4.48655C125.239 4.4021 125.58 4.44433 125.899 4.43377C126.219 4.42321 126.539 4.43377 126.922 4.43377L130.14 13.8608H130.225L133.538 4.49711C134.199 4.38099 134.86 4.45488 135.616 4.44433L129.959 19.6986Z" fill="white"/>
  <path d="M89.2175 14.6949C89.2495 15.096 89.2495 15.5077 89.1962 15.9089C88.8766 15.9933 87.6301 16.0567 87.2785 15.9722C87.0654 15.9194 86.8523 15.9406 86.6499 15.8772C85.4247 15.5288 85.1264 14.8004 85.0198 13.8609C85.0092 13.7553 85.0092 13.6498 85.0198 13.5442C85.0198 9.4799 85.0198 5.4156 85.0198 1.3513C85.0198 1.16128 84.9666 0.960708 85.1051 0.760132H87.1187V4.26493C87.8219 4.3705 88.4931 4.24382 89.1643 4.33883C89.2921 4.77165 89.1962 5.19391 89.2282 5.62673C88.5357 5.75341 87.8645 5.60562 87.2252 5.71119C87.0761 5.88009 87.1293 6.03844 87.1293 6.19679C87.1293 8.55092 87.1293 10.9156 87.1293 13.2697C87.1293 13.502 87.1613 13.7237 87.2359 13.9454C87.3318 14.2515 87.5981 14.4837 87.9177 14.5471C88.1415 14.5999 88.3652 14.6315 88.5996 14.6421C88.7914 14.621 88.9938 14.5787 89.2175 14.6949Z" fill="white"/>
  <path d="M123.311 14.6315V15.9616C122.48 16.0038 121.67 16.0355 120.871 15.8772C119.805 15.6555 119.209 14.9059 119.198 13.8186C119.187 13.3647 119.198 12.9002 119.198 12.4462C119.198 8.77254 119.198 5.09884 119.198 1.42513V0.855077C119.592 0.707284 120.786 0.696727 121.308 0.833964V4.30709H123.279C123.396 4.76103 123.332 5.19385 123.321 5.6689H121.393C121.265 5.84836 121.308 5.99615 121.308 6.13339C121.308 8.5403 121.308 10.9472 121.308 13.3541C121.308 13.6603 121.34 13.9453 121.531 14.1986C121.787 14.5259 122.139 14.5998 122.522 14.6209C122.767 14.642 123.023 14.6315 123.311 14.6315Z" fill="white"/>
  <path d="M107.735 15.6661H105.838C105.732 15.3071 105.689 5.53171 105.785 4.52883C106.158 4.40215 107.149 4.39159 107.639 4.51827V6.43958C108.491 4.86664 109.791 4.10656 111.591 4.08545V5.73228C111.357 5.77451 111.101 5.82729 110.846 5.85896C109.343 6.07009 108.342 6.95685 107.99 8.43478C107.862 9.0365 107.798 9.64879 107.798 10.2611C107.777 11.8762 107.798 13.4914 107.788 15.1066C107.798 15.2966 107.841 15.476 107.735 15.6661Z" fill="white"/>
  <path d="M82.7074 4.08545V5.75339C82.4517 5.79562 82.196 5.83785 81.9403 5.88007C80.2463 6.14399 79.2341 7.17854 78.9891 8.8676C78.9252 9.34264 78.8932 9.80714 78.8932 10.2822C78.8932 11.8868 78.8932 13.4808 78.8932 15.0854C78.8932 15.2543 78.8932 15.4338 78.8932 15.6238C78.5523 15.74 78.2113 15.6661 77.8811 15.6766C77.5508 15.6872 77.2418 15.6766 76.9435 15.6766C76.837 15.2755 76.805 5.29946 76.9009 4.46549H78.7121V6.38679C78.9465 6.41846 78.9465 6.239 79.0104 6.13343C79.7881 4.70829 81.0666 4.14879 82.7074 4.08545Z" fill="white"/>
  <path d="M116.087 15.7927H114.073V4.32825H116.044C116.14 4.7294 116.183 14.5787 116.087 15.7927Z" fill="white"/>
  <path d="M116.087 2.7975H114.073V0.749512H116.087V2.7975Z" fill="white"/>
  <path d="M149.232 8.05472C149.232 9.03649 148.774 9.5221 147.836 9.5221H145.642V6.61902H147.73C148.742 6.61902 149.232 7.08351 149.232 8.05472Z" fill="white"/>
  <path d="M156.189 6.61896H154.037V9.52203H156.275C157.169 9.52203 157.606 9.04699 157.606 8.05466C157.606 7.06234 157.137 6.61896 156.189 6.61896ZM156.189 6.61896H154.037V9.52203H156.275C157.169 9.52203 157.606 9.04699 157.606 8.05466C157.606 7.06234 157.137 6.61896 156.189 6.61896ZM167.046 2.71301H144.193C142.456 2.71301 141.05 4.10649 141.05 5.82722V13.8714C141.05 15.5921 142.456 16.9856 144.193 16.9856H167.046C168.782 16.9856 170.189 15.5921 170.189 13.8819V5.82722C170.178 4.10649 168.772 2.71301 167.046 2.71301C167.035 2.71301 167.035 2.71301 167.046 2.71301ZM148.113 10.9155H145.652V14.4309H144.118V5.22549H148.113C149.893 5.22549 150.788 6.18614 150.788 8.06522C150.788 9.9443 149.882 10.9155 148.113 10.9155ZM157.478 14.4625L157.446 14.4097L155.561 10.9155H154.037V14.4625H152.482V5.22549H156.498C158.267 5.23605 159.162 6.18614 159.162 8.07578C159.119 9.75428 158.48 10.6727 157.265 10.8099L159.14 14.3147L159.226 14.4625H157.478ZM167.728 10.4405C167.728 13.0902 166.684 14.4414 164.617 14.4414H163.807C161.751 14.4414 160.707 13.0902 160.707 10.4405V9.24756C160.707 6.57674 161.751 5.22549 163.807 5.22549H164.617C166.684 5.22549 167.728 6.57674 167.728 9.24756V10.4405ZM164.659 6.62952H163.786C162.784 6.62952 162.294 7.49516 162.294 9.27923V10.4088C162.294 12.1929 162.784 13.0691 163.786 13.0691H164.659C165.639 13.0691 166.119 12.2034 166.119 10.4088V9.27923C166.108 7.49516 165.639 6.62952 164.659 6.62952ZM157.606 8.05466C157.606 7.08345 157.148 6.60841 156.189 6.60841H154.037V9.51148H156.275C157.169 9.52203 157.606 9.04699 157.606 8.05466Z" fill="white"/>
  <path d="M138.482 2.93477H138.098V3.73707H137.789V1.68909H138.673C139.057 1.68909 139.249 1.90022 139.249 2.31193C139.238 2.69197 139.089 2.89254 138.801 2.91366L139.249 3.73707H138.908L138.482 2.93477ZM138.631 2.6603C138.844 2.6603 138.961 2.54417 138.961 2.30137C138.961 2.05857 138.844 1.953 138.62 1.953H138.109V2.6603H138.631Z" fill="white"/>
  <path d="M138.45 1.15068C139.313 1.15068 140.016 1.84742 140.016 2.70251C140.016 3.55759 139.313 4.25433 138.45 4.25433C137.587 4.25433 136.884 3.55759 136.884 2.70251C136.884 1.84742 137.587 1.15068 138.45 1.15068ZM138.45 0.833984C137.417 0.833984 136.575 1.66796 136.575 2.69195C136.575 3.71594 137.417 4.54992 138.45 4.54992C139.484 4.54992 140.325 3.71594 140.325 2.69195C140.325 1.67851 139.484 0.844541 138.45 0.833984Z" fill="white"/>
</svg>
